# xmcd
# 
# Track frame offsets:
#     150
#     23093
#     50694
#     76069
# 
# Disc length: 1301
# 
# Revision: 0
# Processed by: cddbd v1.5.2PL0 Copyright (c) Steve Scherf et al.
# Submitted via: fre:ac v1.0.17
# 
DISCID=24051304
DTITLE=Aversio Humanitatis - Longing For The Untold (2017)
DYEAR=0
DGENRE=
TTITLE0=Longing for the Untold
TTITLE1=Prision of Shattered Glass
TTITLE2=The Ever Shifting Path
TTITLE3=Advent of the Inescapable
EXTD=
EXTT0=
EXTT1=
EXTT2=
EXTT3=
PLAYORDER=
